# xmcd
# Copyright (C) 1995-1998 Ti Kan
#
# Track frame offsets:
#       150
#       14777
#       28569
#       44402
#       61446
#       74739
#       88335
#       103524
#       120382
#       134079
#       148377
#       161143
#       174944
#       191925
#       205766
#
# Disc length: 2921 seconds
#
# Revision: 0
# Processed by: cddbd v1.5.2PL0 Copyright (c) Steve Scherf et al.
# Submitted via: CD-Transfer v1.0
#
DISCID=ee0b670f
DTITLE=Trenkwalder - 
DYEAR=1900
DGENRE=
TTITLE0=Nordwind
TTITLE1=Zähl Deine Freunde
TTITLE2=Tiroler Manda
TTITLE3=Wia A Wasserfall
TTITLE4=Goldenes Herz
TTITLE5=Hiatltuxa
TTITLE6=Dafür Mach Ma Musik
TTITLE7=I Mag Di, I Brauch Di, I Will Di
TTITLE8=Sie Steht Auf Vivaldi
TTITLE9=I Kann Die Berge Nirgends Sehn
TTITLE10=A Jeder Hat Sein Traum
TTITLE11=Singen Is Uns´re Freid
TTITLE12=Sonnenseit´n
TTITLE13=Nordic Walken
TTITLE14=I Komm Heut Nacht Auf A Busserl Zu Dir
EXTD=
EXTT0=
EXTT1=
EXTT2=
EXTT3=
EXTT4=
EXTT5=
EXTT6=
EXTT7=
EXTT8=
EXTT9=
EXTT10=
EXTT11=
EXTT12=
EXTT13=
EXTT14=
PLAYORDER=
